<svg width="50" height="50" viewBox="0 0 50 50" fill="none" xmlns="http://www.w3.org/2000/svg">
<circle cx="25" cy="25" r="25" fill="#C5FFEE"/>
<path d="M19.668 17.0013C19.668 18.4158 20.2299 19.7723 21.2301 20.7725C22.2303 21.7727 23.5868 22.3346 25.0013 22.3346C26.4158 22.3346 27.7723 21.7727 28.7725 20.7725C29.7727 19.7723 30.3346 18.4158 30.3346 17.0013C30.3346 15.5868 29.7727 14.2303 28.7725 13.2301C27.7723 12.2299 26.4158 11.668 25.0013 11.668C23.5868 11.668 22.2303 12.2299 21.2301 13.2301C20.2299 14.2303 19.668 15.5868 19.668 17.0013Z" fill="#0FB685"/>
<path d="M35.6654 30.3359C35.6654 33.6497 35.6654 36.3359 24.9987 36.3359C14.332 36.3359 14.332 33.6497 14.332 30.3359C14.332 27.0222 19.1077 24.3359 24.9987 24.3359C30.8898 24.3359 35.6654 27.0222 35.6654 30.3359Z" fill="#0FB685"/>
</svg>
