<svg width="167" height="30" viewBox="0 0 167 30" fill="none" xmlns="http://www.w3.org/2000/svg">
<path fill-rule="evenodd" clip-rule="evenodd" d="M10.0002 5.60547H20.1517V15.9085C20.1517 22.9376 14.4535 28.6358 7.42442 28.6358H6.81836V8.78729C6.81836 7.03002 8.24291 5.60547 10.0002 5.60547Z" fill="#5DCEA5"/>
<path d="M14.2424 0C18.4264 0 21.8182 3.39178 21.8182 7.57576V13.8889C21.8182 24.9997 15.2778 30 8.33333 30H1.51515C1.49857 30 1.48205 29.9997 1.4656 29.9992L1.36364 30L1.36362 29.9925C0.597973 29.9165 0 29.2705 0 28.4848V9.22536L0.0013435 9.02239L0.00372831 8.82473L0.00730039 8.63226C0.00799448 8.6006 0.00873789 8.56916 0.00953056 8.53792L0.014877 8.35299C0.0158664 8.32258 0.0169049 8.29237 0.0179924 8.26236L0.0251054 8.08468L0.0333917 7.91169L0.0428479 7.74325L0.0534704 7.57925L0.0652559 7.41955L0.0782008 7.26403C0.0804547 7.23845 0.0827567 7.21304 0.0851069 7.1878L0.0997844 7.03832C0.102327 7.01373 0.104917 6.9893 0.107555 6.96503L0.123957 6.8213L0.141505 6.68125C0.144525 6.65821 0.147592 6.63531 0.150707 6.61256L0.169967 6.47779L0.190363 6.34639C0.197351 6.30313 0.204528 6.26041 0.211893 6.21822L0.234552 6.09316C0.238423 6.07257 0.24234 6.05211 0.246304 6.03176L0.270652 5.91114L0.296121 5.79332L0.322707 5.67818L0.350408 5.56558L0.379219 5.4554L0.394041 5.40119L0.424511 5.29441L0.456084 5.18974L0.488756 5.08706L0.522522 4.98624C0.528241 4.96958 0.534005 4.953 0.539815 4.93648L0.575217 4.83821C0.581209 4.82196 0.587245 4.80578 0.593326 4.78966L0.630357 4.69366L0.668469 4.59901L0.707658 4.50559L0.747922 4.41328C0.754722 4.39798 0.761566 4.38272 0.768456 4.3675L0.810324 4.27661L0.831658 4.23147L0.875123 4.14172L0.919649 4.05257L0.965231 3.9639L1.01187 3.87558C1.67212 2.64102 2.64102 1.67212 3.87558 1.01187L3.96609 0.964093L4.05696 0.917425L4.14834 0.871867L4.24037 0.827423L4.33317 0.784096C4.34871 0.776968 4.36429 0.769886 4.37991 0.762852L4.47413 0.721208L4.56947 0.68069L4.66606 0.641303L4.76404 0.60305C4.78049 0.596769 4.797 0.590536 4.81359 0.58435L4.91389 0.547805C4.93075 0.541809 4.94768 0.535861 4.96468 0.529961L5.06763 0.495133L5.11981 0.478149L5.22569 0.445046C5.24352 0.439625 5.26142 0.434252 5.27943 0.428927L5.38855 0.397557L5.50001 0.367348C5.53756 0.357472 5.57553 0.34779 5.61393 0.338302L5.73045 0.310425L5.84971 0.283718C5.86982 0.279365 5.89005 0.275061 5.91041 0.270806L6.03402 0.245864L6.16072 0.222103L6.29061 0.199527L6.42386 0.178139L6.56058 0.157944L6.63029 0.148294L6.77248 0.129894C6.82051 0.12396 6.86917 0.118227 6.91849 0.112695L7.06845 0.0967011L7.2225 0.0819164C7.24852 0.0795533 7.27472 0.0772406 7.3011 0.0749786L7.46153 0.0620145L7.62638 0.0502687L7.7958 0.039745L7.96991 0.0304471L8.14884 0.0223788L8.33275 0.0155439L8.52175 0.00994598L8.71598 0.00558892L8.91559 0.00247643L9.22536 0H14.2424ZM2.74541 8.25585L2.74201 8.34617L2.73709 8.5116L2.73318 8.6827L2.73027 8.85966L2.72835 9.04266L2.72727 9.23188L2.72735 13.7495C6.59692 14.3987 9.54545 17.7641 9.54545 21.8182C9.54545 23.9137 8.75769 25.8252 7.46215 27.2727L8.33333 27.2727C11.1826 27.2727 13.7537 26.2473 15.6344 24.3039L15.7012 24.2341C17.8374 21.982 19.0662 18.5612 19.0905 14.0266L19.0909 13.8889L19.0911 8.31424C16.9267 8.8377 14.71 10.8356 13.4767 12.9138C13.2931 13.2233 12.9138 13.6364 12.2727 13.6364C11.729 13.6364 11.3571 13.324 11.2029 13.1207C9.28526 10.5917 6.41786 8.65152 2.74541 8.25585ZM2.72735 16.5355L2.72742 27.1008C5.07993 26.4953 6.81818 24.3597 6.81818 21.8182C6.81818 19.2766 5.07989 17.141 2.72735 16.5355ZM14.2425 2.72727H9.23328L9.041 2.72847L8.85516 2.7305L8.67557 2.73354C8.64615 2.73413 8.61698 2.73477 8.58806 2.73544L8.33436 2.74269L8.17237 2.74884L8.01586 2.75605L7.86463 2.76435L7.71851 2.77375L7.57729 2.78428C7.55416 2.78612 7.53121 2.78802 7.50847 2.78996L7.37425 2.8022L7.24446 2.81559L7.11891 2.83017L6.99741 2.84594C6.93763 2.85412 6.8793 2.86277 6.82231 2.87187L6.71008 2.89071C6.69166 2.89395 6.67338 2.89725 6.65524 2.90059L6.54799 2.92132L6.44383 2.94332C6.39249 2.95465 6.34223 2.96646 6.29295 2.97877L6.19567 3.00405C6.17966 3.00838 6.16375 3.01276 6.14794 3.01719L6.05421 3.04449L5.9626 3.07316L5.91754 3.088L5.82876 3.11875L5.74163 3.1509L5.69862 3.16751L5.61361 3.20181L5.52976 3.23755L5.44689 3.27476L5.3648 3.31346L5.28331 3.35366L5.24273 3.37433L5.16176 3.41681C4.40247 3.82288 3.82288 4.40247 3.41681 5.16176L3.375 5.24142C3.36816 5.25472 3.36137 5.26803 3.35465 5.28136L3.31504 5.36157L3.27688 5.44237L3.24015 5.52395L3.21849 5.57427C7.44938 6.12094 10.7547 8.42722 12.2727 10.149C13.6368 7.92065 16.117 6.12536 18.6742 5.60642C17.9296 3.93307 16.2649 2.75941 14.3226 2.72792L14.2425 2.72727Z" fill="black"/>
<path d="M47.596 11.6894L47.6129 11.7267L51.2221 19.9761L54.6504 11.7488C54.94 11.0536 55.7384 10.7249 56.4336 11.0145C57.1288 11.3042 57.4575 12.1026 57.1678 12.7977L52.2793 24.5303L52.1829 24.759C51.575 26.1868 51.0034 27.2228 50.2769 28.0746C49.2255 29.3074 47.9258 30.0005 46.3636 30.0005C45.6105 30.0005 45 29.39 45 28.6369C45 27.8972 45.5889 27.2951 46.3234 27.2738L46.3636 27.2733C47.0456 27.2733 47.6338 26.9708 48.1953 26.3136L48.264 26.2313C48.3667 26.1053 48.4687 25.9672 48.5702 25.8167L48.6379 25.7146C48.6492 25.6973 48.6604 25.6798 48.6717 25.6622L48.7392 25.5545C48.7617 25.518 48.7842 25.4808 48.8067 25.4431L48.8741 25.328C48.8854 25.3085 48.8966 25.2888 48.9079 25.269L48.9754 25.1482C48.9979 25.1073 49.0204 25.0658 49.0429 25.0236L49.1105 24.8953L49.1782 24.763L49.246 24.627C49.2574 24.604 49.2687 24.5808 49.28 24.5575L49.3481 24.4156L49.4164 24.2698C49.4278 24.2451 49.4392 24.2204 49.4506 24.1954L49.5193 24.0437C49.5307 24.0181 49.5422 23.9923 49.5537 23.9663L49.6227 23.8087L49.6921 23.647L49.7618 23.4813L49.77 23.4614L45.1143 12.8198C44.8125 12.1299 45.1271 11.3258 45.8171 11.024C46.4945 10.7276 47.2819 11.0255 47.596 11.6894ZM102.141 11.6894L102.158 11.7267L105.768 19.9761L109.196 11.7488C109.485 11.0536 110.284 10.7249 110.979 11.0145C111.674 11.3042 112.003 12.1026 111.713 12.7977L106.825 24.5303L106.728 24.759C106.12 26.1868 105.549 27.2228 104.822 28.0746C103.771 29.3074 102.471 30.0005 100.909 30.0005C100.156 30.0005 99.5455 29.39 99.5455 28.6369C99.5455 27.8972 100.134 27.2951 100.869 27.2738L100.909 27.2733C101.591 27.2733 102.179 26.9708 102.741 26.3136L102.809 26.2313C102.912 26.1053 103.014 25.9672 103.116 25.8167L103.183 25.7146C103.195 25.6973 103.206 25.6798 103.217 25.6622L103.285 25.5545C103.307 25.518 103.33 25.4808 103.352 25.4431L103.42 25.328C103.431 25.3085 103.442 25.2888 103.453 25.269L103.521 25.1482C103.543 25.1073 103.566 25.0658 103.588 25.0236L103.656 24.8953L103.724 24.763L103.792 24.627C103.803 24.604 103.814 24.5808 103.825 24.5575L103.894 24.4156L103.962 24.2698C103.973 24.2451 103.985 24.2204 103.996 24.1954L104.065 24.0437C104.076 24.0181 104.088 23.9923 104.099 23.9663L104.168 23.8087L104.238 23.647L104.307 23.4813L104.315 23.4614L99.6598 12.8198C99.3579 12.1299 99.6726 11.3258 100.363 11.024C101.04 10.7276 101.827 11.0255 102.141 11.6894ZM36.8182 5.45508C39.8306 5.45508 42.2727 7.89716 42.2727 10.9096C42.2727 12.2069 41.8198 13.3984 41.0636 14.3347L41.0138 14.3954L40.995 14.4175L41.055 14.4541C42.5601 15.3886 43.5767 17.0354 43.6338 18.9235L43.6356 19.0012L43.6364 19.0914C43.6364 22.0738 41.2429 24.4971 38.272 24.5453L38.1818 24.546H31.3636C30.624 24.546 30.0219 23.9571 30.0006 23.2226L30 23.1824V6.81871C30 6.07905 30.5889 5.47693 31.3234 5.45566L31.3636 5.45508H36.8182ZM62.7273 6.81871C63.4669 6.81871 64.0691 7.40762 64.0903 8.14214L64.0909 8.18235V10.9096H66.8182C67.5713 10.9096 68.1818 11.5201 68.1818 12.2733C68.1818 13.0129 67.5929 13.615 66.8584 13.6363L66.8182 13.6369H64.0909V19.0914C64.0909 19.142 64.0912 19.1917 64.0917 19.2405L64.0939 19.3841L64.0975 19.5223L64.1026 19.6554C64.1036 19.6771 64.1046 19.6987 64.1057 19.72L64.1129 19.8453L64.1214 19.9656L64.1312 20.0809C64.1329 20.0998 64.1347 20.1184 64.1366 20.1368L64.1483 20.2449C64.1545 20.2977 64.1611 20.3488 64.1682 20.3981L64.183 20.4945C64.1856 20.5102 64.1882 20.5257 64.1909 20.541L64.2074 20.6306L64.2251 20.7158C64.2281 20.7296 64.2312 20.7433 64.2343 20.7568L64.2536 20.8355C64.2569 20.8483 64.2603 20.8609 64.2637 20.8733L64.2845 20.9458C64.2988 20.9927 64.3137 21.0369 64.3293 21.0786L64.3531 21.1391C64.4381 21.3441 64.5401 21.4788 64.6535 21.5594L64.6826 21.5791C64.6875 21.5823 64.6926 21.5855 64.6977 21.5886L64.7291 21.6069L64.7623 21.6243L64.7975 21.6409L64.8348 21.6565C64.8412 21.6591 64.8477 21.6616 64.8543 21.664L64.895 21.6784L64.9384 21.692L64.9845 21.7048L65.0334 21.7168L65.0855 21.728L65.1408 21.7384L65.1995 21.7482L65.2619 21.7572L65.328 21.7655L65.398 21.7731L65.4722 21.7801L65.5916 21.7893L65.7212 21.7972L65.8617 21.8038L66.0136 21.809L66.2349 21.8142L66.4157 21.8167L66.6778 21.8185L66.8182 21.8187C67.5713 21.8187 68.1818 22.4292 68.1818 23.1824C68.1818 23.9355 67.5713 24.546 66.8182 24.546L66.3878 24.5449L66.0865 24.5416L65.926 24.5384L65.731 24.5324L65.6401 24.5285L65.5528 24.5239L65.4682 24.5187L65.3452 24.5096L65.2247 24.4986L65.1447 24.4903L65.0641 24.4811L64.9824 24.4709C64.2389 24.3754 63.6164 24.1681 63.0738 23.7826C61.8859 22.9386 61.3774 21.4679 61.3639 19.1857L61.3636 13.6369H60C59.2469 13.6369 58.6364 13.0264 58.6364 12.2733C58.6364 11.5336 59.2253 10.9315 59.9598 10.9102L60 10.9096H61.3636V8.18235C61.3636 7.42924 61.9742 6.81871 62.7273 6.81871ZM75.6818 10.9096C78.9455 10.9096 81.7613 13.6532 81.8173 17.0195L81.8182 17.1217L81.8191 17.4466V17.5891L81.8181 17.7433C81.8098 18.477 81.2231 19.0699 80.4944 19.0909L80.4545 19.0914H72.3685L72.37 19.097C72.7553 20.5983 74.2346 21.7907 75.8885 21.8182L75.947 21.8187C77.0827 21.8187 77.7389 21.6516 78.5085 21.1227L78.6118 21.05C78.6639 21.0126 78.7166 20.9735 78.77 20.9327L78.8781 20.8489L78.9886 20.7604C79.5731 20.2855 80.4319 20.3743 80.9068 20.9588C81.3817 21.5433 81.2929 22.4021 80.7084 22.8771C79.2178 24.0881 77.9388 24.546 75.947 24.546C72.5588 24.546 69.6051 21.7913 69.5463 18.4357L69.5455 18.3339V17.1217C69.5455 13.6956 72.288 10.9096 75.6818 10.9096ZM91.3636 5.45508C94.3761 5.45508 96.8182 7.89716 96.8182 10.9096C96.8182 12.2069 96.3653 13.3984 95.609 14.3347L95.5593 14.3954L95.5405 14.4175L95.6005 14.4541C97.1056 15.3886 98.1222 17.0354 98.1793 18.9235L98.1811 19.0012L98.1818 19.0914C98.1818 22.0738 95.7883 24.4971 92.8175 24.5453L92.7273 24.546H85.9091C85.1694 24.546 84.5673 23.9571 84.546 23.2226L84.5455 23.1824V6.81871C84.5455 6.07905 85.1344 5.47693 85.8689 5.45566L85.9091 5.45508H91.3636ZM117.273 6.81871C118.012 6.81871 118.615 7.40762 118.636 8.14214L118.636 8.18235V10.9096H121.364C122.117 10.9096 122.727 11.5201 122.727 12.2733C122.727 13.0129 122.138 13.615 121.404 13.6363L121.364 13.6369H118.636V19.0914C118.636 19.142 118.637 19.1917 118.637 19.2405L118.639 19.3841L118.643 19.5223L118.648 19.6554C118.649 19.6771 118.65 19.6987 118.651 19.72L118.658 19.8453L118.667 19.9656L118.677 20.0809C118.678 20.0998 118.68 20.1184 118.682 20.1368L118.694 20.2449C118.7 20.2977 118.707 20.3488 118.714 20.3981L118.728 20.4945C118.731 20.5102 118.734 20.5257 118.736 20.541L118.753 20.6306L118.771 20.7158C118.774 20.7296 118.777 20.7433 118.78 20.7568L118.799 20.8355C118.802 20.8483 118.806 20.8609 118.809 20.8733L118.83 20.9458C118.844 20.9927 118.859 21.0369 118.875 21.0786L118.899 21.1391C118.984 21.3441 119.086 21.4788 119.199 21.5594L119.228 21.5791C119.233 21.5823 119.238 21.5855 119.243 21.5886L119.275 21.6069L119.308 21.6243L119.343 21.6409L119.38 21.6565C119.387 21.6591 119.393 21.6616 119.4 21.664L119.44 21.6784L119.484 21.692L119.53 21.7048L119.579 21.7168L119.631 21.728L119.686 21.7384L119.745 21.7482L119.807 21.7572L119.873 21.7655L119.943 21.7731L120.018 21.7801L120.137 21.7893L120.267 21.7972L120.407 21.8038L120.559 21.809L120.78 21.8142L120.961 21.8167L121.223 21.8185L121.364 21.8187C122.117 21.8187 122.727 22.4292 122.727 23.1824C122.727 23.9355 122.117 24.546 121.364 24.546L120.933 24.5449L120.632 24.5416L120.471 24.5384L120.276 24.5324L120.186 24.5285L120.098 24.5239L120.014 24.5187L119.891 24.5096L119.77 24.4986L119.69 24.4903L119.61 24.4811L119.528 24.4709C118.784 24.3754 118.162 24.1681 117.619 23.7826C116.431 22.9386 115.923 21.4679 115.909 19.1857L115.909 13.6369H114.545C113.792 13.6369 113.182 13.0264 113.182 12.2733C113.182 11.5336 113.771 10.9315 114.505 10.9102L114.545 10.9096H115.909V8.18235C115.909 7.42924 116.52 6.81871 117.273 6.81871ZM130.227 10.9096C133.491 10.9096 136.307 13.6532 136.363 17.0195L136.364 17.1217L136.365 17.4466V17.5891L136.364 17.7433C136.355 18.477 135.769 19.0699 135.04 19.0909L135 19.0914H126.914L126.915 19.097C127.301 20.5983 128.78 21.7907 130.434 21.8182L130.492 21.8187C131.628 21.8187 132.284 21.6516 133.054 21.1227L133.157 21.05C133.209 21.0126 133.262 20.9735 133.315 20.9327L133.424 20.8489L133.534 20.7604C134.119 20.2855 134.977 20.3743 135.452 20.9588C135.927 21.5433 135.838 22.4021 135.254 22.8771C133.763 24.0881 132.484 24.546 130.492 24.546C127.104 24.546 124.151 21.7913 124.092 18.4357L124.091 18.3339V17.1217C124.091 13.6956 126.833 10.9096 130.227 10.9096ZM161.515 10.9096C164.497 10.9096 166.921 13.3031 166.969 16.274L166.97 16.3642V19.0914C166.97 22.1039 164.528 24.546 161.515 24.546C158.533 24.546 156.109 22.1525 156.061 19.1816L156.061 19.0914V16.3642C156.061 13.3517 158.503 10.9096 161.515 10.9096ZM146.591 5.45508C149.147 5.45508 151.53 6.71159 152.978 8.78669C153.409 9.40431 153.257 10.2544 152.64 10.6853C152.022 11.1163 151.172 10.965 150.741 10.3474C149.801 8.99954 148.251 8.18235 146.591 8.18235C143.981 8.18235 141.861 10.2767 141.819 12.8762L141.818 12.9551V17.046C141.818 19.6819 143.955 21.8187 146.591 21.8187C148.59 21.8187 150.53 20.6015 151.274 18.9423L151.297 18.8905L151.304 18.7584L151.312 18.6072L151.319 18.4496L151.326 18.2854L151.337 17.9372L151.342 17.7528L151.348 17.4633L151.355 17.0525L151.358 16.7252L151.361 16.3639L147.652 16.3642C146.899 16.3643 146.288 15.7538 146.288 15.0007C146.288 14.261 146.877 13.6588 147.611 13.6375L147.75 13.6369L152.729 13.6369C153.481 13.6377 154.091 14.248 154.091 15.0005L154.09 16.0422L154.085 16.7529L154.082 17.0833L154.077 17.3987L154.071 17.6994L154.067 17.8919L154.061 18.0783L154.056 18.2587L154.046 18.5184L154.039 18.6844L154.031 18.8449L154.022 19.0001L154.013 19.15L154.003 19.2948C153.994 19.4246 153.966 19.5524 153.92 19.6743C152.848 22.5392 149.79 24.546 146.591 24.546C142.49 24.546 139.158 21.2549 139.092 17.17L139.091 17.046V12.9551C139.091 8.81294 142.449 5.45508 146.591 5.45508ZM36.8182 8.18235H32.7273V21.8187H38.1818C39.688 21.8187 40.9091 20.5977 40.9091 19.0914C40.9091 17.6019 39.715 16.3913 38.2319 16.3646L38.1818 16.3642H36.8182C35.0182 16.3642 35.0002 13.6912 36.7642 13.6377L36.8182 13.6369L36.8683 13.6364C38.3514 13.6097 39.5455 12.3991 39.5455 10.9096C39.5455 9.40339 38.3244 8.18235 36.8182 8.18235ZM91.3636 8.18235H87.2727V21.8187H92.7273C94.2335 21.8187 95.4545 20.5977 95.4545 19.0914C95.4545 17.6019 94.2605 16.3913 92.7774 16.3646L92.7273 16.3642H91.3636C89.5636 16.3642 89.5456 13.6912 91.3096 13.6377L91.3636 13.6369L91.4137 13.6364C92.8969 13.6097 94.0909 12.3991 94.0909 10.9096C94.0909 9.40339 92.8699 8.18235 91.3636 8.18235ZM161.515 13.6369C160.026 13.6369 158.815 14.831 158.788 16.3141L158.788 16.3642V19.0914C158.788 20.5977 160.009 21.8187 161.515 21.8187C163.005 21.8187 164.215 20.6247 164.242 19.1415L164.242 19.0914V16.3642C164.242 14.8579 163.021 13.6369 161.515 13.6369ZM75.6818 13.6369C74.0668 13.6369 72.7082 14.7873 72.3595 16.3366L72.3535 16.3642H79.0041L79.0001 16.3464C78.6406 14.8285 77.2616 13.6642 75.7357 13.6374L75.6818 13.6369ZM130.227 13.6369C128.612 13.6369 127.254 14.7873 126.905 16.3366L126.899 16.3642H133.55L133.546 16.3464C133.186 14.8285 131.807 13.6642 130.281 13.6374L130.227 13.6369Z" fill="black"/>
</svg>
